<svg width="40" height="40" viewBox="0 0 40 40" fill="none" xmlns="http://www.w3.org/2000/svg">
<path fill-rule="evenodd" clip-rule="evenodd" d="M20.1176 0C31.0984 0 40 8.90163 40 19.8824C40 30.8631 31.0984 39.7647 20.1176 39.7647C9.13692 39.7647 0.235291 30.8631 0.235291 19.8824C0.235291 8.90163 9.13692 0 20.1176 0ZM23.0914 7.75896C19.4413 7.75896 16.9426 9.92833 16.9426 13.9124V17.3455H12.8142V22.0006H16.9426V33.9456H21.8793V22.0006H25.997L26.6135 17.3455H21.8793V14.3733C21.8793 13.0255 22.2638 12.107 24.2487 12.107L26.7803 12.1061V7.9425C26.3423 7.88575 24.8396 7.75896 23.0914 7.75896Z" fill="#121212"/>
</svg>
