<svg width="41" height="40" viewBox="0 0 41 40" fill="none" xmlns="http://www.w3.org/2000/svg">
<path fill-rule="evenodd" clip-rule="evenodd" d="M20.5 0C31.4807 0 40.3824 8.90163 40.3824 19.8824C40.3824 30.8631 31.4807 39.7647 20.5 39.7647C9.51931 39.7647 0.617676 30.8631 0.617676 19.8824C0.617676 8.90163 9.51931 0 20.5 0ZM30.1823 10.6687C29.9845 10.6973 29.7364 10.6954 29.5169 10.7724C29.2521 10.8654 28.9904 10.9671 28.7298 11.0719L27.9495 11.3898C27.6644 11.5053 27.3844 11.6329 27.0993 11.7484C26.5572 11.9682 26.0123 12.1816 25.47 12.401C25.179 12.5188 24.8914 12.6455 24.6012 12.7653C24.0715 12.9841 23.5405 13.1995 23.011 13.4188C22.7264 13.5367 22.4457 13.6639 22.1602 13.7795C21.7465 13.9471 21.3288 14.105 20.9151 14.2728C20.6184 14.3933 20.3273 14.5276 20.0305 14.6478L18.7173 15.1681C18.4436 15.279 18.1758 15.4043 17.9022 15.5155C17.3151 15.754 16.7256 15.9865 16.1379 16.2236C15.8919 16.3228 15.6491 16.4306 15.4027 16.5288C14.8363 16.7545 14.2683 16.976 13.7014 17.2005C13.3985 17.3204 13.096 17.4415 12.7943 17.5642C12.3806 17.7325 11.9677 17.9029 11.5546 18.0724C11.2701 18.1892 10.9862 18.3075 10.7009 18.4225C10.169 18.6368 9.63632 18.8491 9.1038 19.062C8.77812 19.1922 8.45082 19.319 8.12646 19.4525C7.6524 19.6475 7.17024 19.8298 6.77755 20.1718C6.60333 20.3235 6.4501 20.4963 6.42271 20.7345C6.39164 21.0045 6.60069 21.3623 6.87394 21.4742C7.16362 21.5928 7.46589 21.6826 7.76484 21.7785C8.52519 22.0222 9.28421 22.2703 10.0486 22.5011C10.5813 22.6619 11.1218 22.7977 11.6593 22.9432C12.1491 23.0757 12.6408 23.0936 13.144 23.0057C13.5643 22.9322 13.9416 22.7876 14.2935 22.5469C14.8388 22.1739 15.402 21.826 15.955 21.4636C16.5084 21.1008 17.0585 20.7333 17.6101 20.3678C18.0754 20.0593 18.5409 19.7513 19.0059 19.4425C19.4912 19.1201 19.977 18.7985 20.4606 18.4738C20.8359 18.2217 21.2065 17.9631 21.5821 17.7117C22.196 17.3007 22.8057 16.8828 23.4299 16.4875C23.8759 16.2051 24.3217 15.9182 24.8534 15.7937C25.002 15.7588 25.1552 15.7452 25.2173 15.8519C25.2768 15.9542 25.2832 16.1396 25.2271 16.2436C25.0751 16.5248 24.9099 16.812 24.6914 17.043C24.1984 17.5644 23.6748 18.058 23.155 18.5542C22.5124 19.1674 21.8638 19.7747 21.2128 20.3793C20.3373 21.1925 19.4545 21.9981 18.5799 22.8124C18.2251 23.1427 17.8558 23.4641 17.545 23.8321C17.2897 24.1343 17.2293 24.5038 17.4133 24.8945C17.5382 25.1601 17.729 25.3617 17.9518 25.5337C18.456 25.923 18.9708 26.2994 19.4851 26.676C19.7569 26.875 20.0333 27.0684 20.3137 27.2557C20.8077 27.5857 21.3055 27.9102 21.8032 28.235L23.2383 29.1661C23.6422 29.4298 24.0377 29.7067 24.4484 29.9597C24.817 30.1868 25.1899 30.4129 25.582 30.5953C25.9022 30.7442 26.2536 30.8279 26.591 30.9409C27.0096 31.0812 27.4286 31.0742 27.8142 30.8647C28.2771 30.6132 28.5175 30.1753 28.6368 29.6922C28.75 29.2333 28.7991 28.759 28.8733 28.2912C28.9099 28.0601 28.9351 27.8275 28.9731 27.5967C29.0599 27.0706 29.1523 26.5456 29.2403 26.0197L29.33 25.4321C29.3952 25.0486 29.4698 24.6665 29.5298 24.2823C29.5927 23.8791 29.6355 23.4729 29.7008 23.07C29.8149 22.3658 29.9414 21.6634 30.0586 20.9597C30.096 20.7347 30.1141 20.5066 30.1513 20.2816C30.2376 19.7613 30.3348 19.2426 30.4184 18.7219C30.4812 18.3311 30.5255 17.9377 30.5855 17.5463C30.6761 16.9541 30.7742 16.3629 30.8669 15.7709C30.9226 15.4151 30.9737 15.0585 31.0274 14.7024C31.1204 14.0858 31.2172 13.4696 31.3058 12.8524C31.3451 12.5788 31.3608 12.3021 31.4008 12.0287C31.4487 11.7018 31.3809 11.3955 31.2156 11.1198C30.9953 10.7521 30.6156 10.688 30.1823 10.6687Z" fill="#121212"/>
</svg>
